<svg id="Layer_1" data-name="Layer 1" xmlns="http://www.w3.org/2000/svg" viewBox="0 0 128 128"><defs><style>.cls-1{fill:#2b2b2b;}.cls-2,.cls-3,.cls-4{fill:#fff;}.cls-3{opacity:0.8;}.cls-4{opacity:0.6;}</style></defs><title>HasteLogoGrey</title><rect class="cls-1" width="128" height="128"/><path class="cls-2" d="M64.3,22h0A17.94,17.94,0,0,1,82.24,39.9V92.22A17.94,17.94,0,0,1,64.3,110.15h0a0,0,0,0,1,0,0V22A0,0,0,0,1,64.3,22Z"/><path class="cls-3" d="M85.95,44.38h0a17.94,17.94,0,0,1,17.94,17.94v38.86a9,9,0,0,1-9,9h0a9,9,0,0,1-9-9V44.38a0,0,0,0,1,0,0Z"/><path class="cls-4" d="M107.8,65.31h0a17.94,17.94,0,0,1,17.94,17.94v26.91a0,0,0,0,1,0,0h0A17.94,17.94,0,0,1,107.8,92.22V65.31A0,0,0,0,1,107.8,65.31Z"/><path class="cls-2" d="M25.06-.84H43a0,0,0,0,1,0,0v45.6A17.94,17.94,0,0,1,25.06,62.7h0a0,0,0,0,1,0,0V-.84a0,0,0,0,1,0,0Z" transform="translate(64.96 -3.1) rotate(90)"/><path class="cls-3" d="M28.88,29.22H46.82a0,0,0,0,1,0,0V56.56A17.94,17.94,0,0,1,28.88,74.49h0a0,0,0,0,1,0,0V29.22A0,0,0,0,1,28.88,29.22Z" transform="translate(89.71 14.01) rotate(90)"/><path class="cls-4" d="M36.43,57.69H54.37a0,0,0,0,1,0,0V69.94A17.94,17.94,0,0,1,36.43,87.88h0a0,0,0,0,1,0,0V57.69A0,0,0,0,1,36.43,57.69Z" transform="translate(118.18 27.39) rotate(90)"/></svg>